<svg width="40" height="45" viewBox="0 0 40 45" fill="none" xmlns="http://www.w3.org/2000/svg">
<path fill-rule="evenodd" clip-rule="evenodd" d="M0.111328 0L3.71055 40.3681L19.8623 44.8519L36.058 40.3615L39.6611 0H0.111328ZM32.9902 37.8217L19.9195 41.4175V36.2794L19.8802 36.2886L9.7212 33.4758L9.02759 25.7072H13.9979L14.3587 29.6505L19.8813 31.1336L19.9195 31.1279V3.36179H36.0527L32.9902 37.8217ZM8.78359 23.1365V23.1366L8.784 23.1365H19.9195V18.1929V18.1927V13.2412L8.35045 18.1927H8.35003V18.1929L8.78359 23.1365ZM19.9194 12.8993V7.95554H19.8691H7.47087L7.90957 12.8993H19.9194Z" fill="#7B4AE2" fill-opacity="0.5"/>
<path fill-rule="evenodd" clip-rule="evenodd" d="M20.7176 12.8993L19.9196 13.2413V18.1927H19.9196V23.1365H25.9659L25.4164 29.6L19.9196 31.1321V36.2832L30.0449 33.4703L31.3782 18.1927H19.9202L31.8277 12.8993L32.253 7.95557H19.9196V12.8373V12.8993H20.7176Z" fill="#7B4AE2" fill-opacity="0.5"/>
</svg>
