<svg width="45" height="45" viewBox="0 0 45 45" fill="none" xmlns="http://www.w3.org/2000/svg">
<g clip-path="url(#clip0_21_5620)">
<path fill-rule="evenodd" clip-rule="evenodd" d="M15.0586 0C10.9186 0 7.55859 3.36 7.55859 7.5C7.55859 11.64 10.9186 15 15.0586 15C10.9186 15 7.55859 18.36 7.55859 22.5C7.55859 26.64 10.9186 30 15.0586 30C10.9186 30 7.55859 33.36 7.55859 37.5C7.55859 41.64 10.9186 45 15.0586 45C19.1986 45 22.5586 41.64 22.5586 37.5L22.5586 22.5C22.5586 26.64 25.9186 30 30.0586 30C34.1986 30 37.5586 26.64 37.5586 22.5C37.5586 18.36 34.1986 15 30.0586 15C34.1986 15 37.5586 11.64 37.5586 7.5C37.5586 3.36 34.1986 0 30.0586 0H15.0586ZM30.0586 15H22.5586L22.5586 22.5C22.5586 18.36 25.9186 15 30.0586 15Z" fill="#7B4AE2" fill-opacity="0.5"/>
</g>
<defs>
<clipPath id="clip0_21_5620">
<rect width="45" height="45" fill="white"/>
</clipPath>
</defs>
</svg>
