<svg width="45" height="45" viewBox="0 0 45 45" fill="none" xmlns="http://www.w3.org/2000/svg">
<path fill-rule="evenodd" clip-rule="evenodd" d="M22.4683 1.05322C10.3518 1.05322 0.526611 10.8766 0.526611 22.9949C0.526611 32.6893 6.81357 40.914 15.5317 43.8153C16.6282 44.0184 17.0308 43.3393 17.0308 42.7598C17.0308 42.2365 17.0105 40.5081 17.001 38.6747C10.8968 40.002 9.60878 36.0858 9.60878 36.0858C8.61067 33.5497 7.17255 32.8753 7.17255 32.8753C5.18179 31.5135 7.32261 31.5415 7.32261 31.5415C9.52594 31.6963 10.6861 33.8026 10.6861 33.8026C12.6431 37.157 15.8191 36.1872 17.0712 35.6266C17.2681 34.2084 17.8367 33.2405 18.4642 32.6926C13.5907 32.1377 8.46751 30.2563 8.46751 21.8489C8.46751 19.4534 9.32464 17.496 10.7282 15.9594C10.5004 15.4068 9.74939 13.1751 10.9408 10.1528C10.9408 10.1528 12.7833 9.56312 16.9763 12.4019C18.7266 11.9158 20.6036 11.672 22.4683 11.6636C24.333 11.672 26.2115 11.9158 27.965 12.4019C32.1529 9.56312 33.9929 10.1528 33.9929 10.1528C35.1872 13.1751 34.4358 15.4068 34.208 15.9594C35.6148 17.496 36.4661 19.4534 36.4661 21.8489C36.4661 30.2763 31.3332 32.1319 26.4473 32.6751C27.2343 33.356 27.9355 34.6913 27.9355 36.7384C27.9355 39.6742 27.9101 42.0371 27.9101 42.7598C27.9101 43.3437 28.3051 44.0278 29.4173 43.8124C38.1306 40.9078 44.4096 32.686 44.4096 22.9949C44.4096 10.8766 34.5858 1.05322 22.4683 1.05322ZM8.74448 32.3096C8.69616 32.4186 8.52466 32.4513 8.36842 32.3764C8.20927 32.3049 8.11989 32.1563 8.17149 32.0469C8.21872 31.9346 8.39058 31.9034 8.54936 31.9786C8.70887 32.0502 8.79971 32.2002 8.74448 32.3096ZM9.82377 33.2726C9.71912 33.3696 9.51456 33.3246 9.37576 33.1713C9.23224 33.0183 9.20535 32.8137 9.31145 32.7153C9.41936 32.6182 9.61775 32.6637 9.76164 32.8166C9.90516 32.9714 9.93313 33.1745 9.82377 33.2726ZM10.5642 34.5048C10.4298 34.5982 10.2099 34.5106 10.074 34.3155C9.93961 34.1204 9.93961 33.8864 10.077 33.7926C10.2132 33.6989 10.4298 33.7832 10.5675 33.9769C10.7015 34.1752 10.7015 34.4092 10.5642 34.5048ZM11.8164 35.9318C11.6962 36.0644 11.44 36.0288 11.2525 35.8479C11.0607 35.6709 11.0073 35.4199 11.1279 35.2872C11.2496 35.1543 11.5072 35.1917 11.6962 35.3712C11.8866 35.5478 11.9447 35.8006 11.8164 35.9318ZM13.4348 36.4136C13.3818 36.5854 13.135 36.6635 12.8865 36.5905C12.6384 36.5153 12.4759 36.314 12.5261 36.1403C12.5777 35.9674 12.8255 35.886 13.0758 35.9641C13.3236 36.039 13.4864 36.2388 13.4348 36.4136ZM15.2766 36.6179C15.2828 36.7989 15.072 36.9489 14.8112 36.9522C14.5488 36.958 14.3366 36.8116 14.3337 36.6335C14.3337 36.4508 14.5397 36.3022 14.8021 36.2978C15.0629 36.2927 15.2766 36.4381 15.2766 36.6179ZM17.0859 36.5486C17.1172 36.7251 16.9359 36.9064 16.6768 36.9548C16.4221 37.0013 16.1863 36.8923 16.154 36.7171C16.1224 36.5362 16.3069 36.3549 16.5613 36.308C16.8207 36.263 17.0529 36.3691 17.0859 36.5486Z" fill="#7B4AE2" fill-opacity="0.5"/>
</svg>
